<svg id="Capa_1" enable-background="new 0 0 512 512" height="512" viewBox="0 0 512 512" width="512" xmlns="http://www.w3.org/2000/svg"><g><path style="fill:#FFFFFF;" d="m512 358.016c0-19.344-3.687-30.798-11.953-39.409v-175.02c0-21.571-9.997-42.227-28.149-58.163-17.165-15.069-39.48-23.711-61.225-23.711h-29.717c-21.745 0-44.061 8.643-61.225 23.711-18.152 15.936-28.149 36.592-28.149 58.163v88.102c-8.067-4.958-17.552-7.824-27.696-7.824h-15.771c-21.319 0-39.728 12.645-48.154 30.824l-15.903-4.352-1.48-14.992c27.726-14.652 47.443-43.762 47.443-68.907v-52.212c0-40.141-32.657-72.798-72.798-72.798h-22.605c-15.479 0-30.29 4.848-42.829 14.021l8.856 12.106c9.951-7.28 21.699-11.127 33.972-11.127h22.605c31.87 0 57.798 25.928 57.798 57.798v7.775c-37.115.903-67.44-6.508-90.206-22.075l-4.038-2.761-4.155 2.582c-2.207 1.371-4.413 2.775-6.628 4.184-10.589 6.737-21.471 13.654-33.176 17.238v-6.942c0-13.789 4.995-27.167 14.063-37.668l-11.353-9.804c-11.421 13.225-17.71 30.084-17.71 47.472v52.212c0 17.123 9.23 36.603 24.69 52.11 6.954 6.975 14.63 12.635 22.741 16.909l-1.469 14.88-58.311 15.959c-37.447 10.246-49.468 26.298-49.468 66.055v88.463h152.238c-.202 2.588-.303 5.333-.303 8.275v41.483h118.13v-15h-103.13v-26.483c0-21.299 4.06-26.689 25.555-33.93l27.334-9.208c4.384 15.864 18.936 27.551 36.176 27.551s31.793-11.687 36.176-27.551l27.334 9.208c21.494 7.241 25.554 12.631 25.554 33.93v26.483h-30v15h45v-41.483c0-2.942-.101-5.688-.303-8.275h152.239zm-182.373-261.32c14.466-12.7 33.175-19.984 51.329-19.984h29.717c18.154 0 36.863 7.284 51.329 19.984 14.861 13.046 23.045 29.699 23.045 46.89v164.122c-4.558-2.499-9.74-4.94-15.605-7.548l-41.177-18.311-2.018-13.544c6.764-3.622 13.164-8.372 18.971-14.197 13.218-13.257 21.109-29.952 21.109-44.658v-45.713s-11.375.011-13.336.022c-25.698.142-52.273.293-76.015-24.075l-5.808-5.96-5.327 6.394c-9.928 11.915-22.284 19.725-37.773 23.875l-5.559 1.49v43.968c0 14.707 7.891 31.401 21.108 44.658 5.808 5.825 12.208 10.576 18.972 14.198l-2.019 13.544s-42.844 19.056-43.632 19.412v-24.343c0-11.764-3.854-22.641-10.358-31.448v-101.886c.002-17.191 8.186-33.844 23.047-46.89zm64.791 164.846c-14.32 0-28.589-6.401-40.178-18.024-10.32-10.352-16.731-23.405-16.731-34.068v-32.627c13.443-4.437 24.817-11.423 34.486-21.187 26.027 22.896 54.132 23.26 79.332 23.132v30.682c0 10.663-6.411 23.716-16.731 34.067-11.589 11.624-25.858 18.025-40.178 18.025zm-17.526 12.554c5.738 1.607 11.615 2.446 17.526 2.446s11.788-.84 17.526-2.446l1.731 11.619-19.258 36.76-19.258-36.76zm-120.892 81.19c-25.359 0-45.939-25.38-45.939-41.943v-28.925h91.879v28.925c-.001 23.153-27.799 41.943-45.94 41.943zm-7.885-116.422h15.771c18.416 0 33.815 13.151 37.308 30.554h-90.387c3.492-17.403 18.891-30.554 37.308-30.554zm-171.298-72.428v-29.714c15.383-3.701 28.498-12.038 41.228-20.137.82-.521 1.639-1.042 2.457-1.562 24.77 15.474 56.509 22.856 94.517 21.983v29.43c0 13.043-7.783 28.952-20.313 41.519-14.051 14.093-31.377 21.854-48.789 21.854s-34.738-7.761-48.789-21.854c-12.527-12.567-20.311-28.476-20.311-41.519zm69.101 78.373c7.63 0 15.075-1.227 22.182-3.43l1.492 15.115c-.156 12.926-10.713 23.394-23.674 23.394-12.96 0-23.517-10.466-23.675-23.39l1.487-15.063c7.247 2.209 14.696 3.374 22.188 3.374zm41.783 136.137c-17.997 6.062-27.779 12.993-32.376 24.869h-140.325v-73.463c0-33.012 7.542-43.137 38.429-51.59l54.992-15.051c4.247 16.749 19.446 29.178 37.497 29.178s33.25-12.429 37.497-29.178l12.231 3.348c-.383 2.566-.586 5.189-.586 7.86v36.425c0 12.532 6.687 26.721 17.886 37.955 3.938 3.95 8.201 7.319 12.686 10.082l-4.774 8.396zm68.299 17.558c-11.806 0-21.513-9.127-22.453-20.694l5.764-10.139c5.439 1.716 11.045 2.615 16.689 2.615s11.25-.899 16.689-2.615l5.764 10.139c-.94 11.567-10.647 20.694-22.453 20.694zm241 7.311h-140.325c-4.597-11.875-14.379-18.807-32.375-24.869l-33.159-11.17-4.774-8.396c4.485-2.763 8.748-6.132 12.686-10.082 9.848-9.878 16.202-22.04 17.593-33.353 2.457-1.192 47.356-21.205 47.356-21.205l30.416 58.059 30.416-58.059 38.514 17.127c27.707 12.321 33.652 17.479 33.652 44.149z"/><path style="fill:#FFFFFF;" d="m285.065 455.574h15v15h-15z"/><path style="fill:#FFFFFF;" d="m410.673 99.212h15v15h-15z"/><path style="fill:#FFFFFF;" d="m440.673 114.211h15v15h-15z"/></g></svg>