<svg width="24" height="24" viewBox="0 0 24 24" fill="none" xmlns="http://www.w3.org/2000/svg">
<path d="M13.015 15.265C12.635 15.615 12.375 15.83 12.355 15.845L12 16.135L11.645 15.85C11.625 15.83 11.365 15.62 10.985 15.27C9.93001 15.325 8.94001 15.475 8.20501 15.685C7.49001 15.89 7.22501 16.09 7.14001 16.175C7.24001 16.275 7.57001 16.52 8.53501 16.755C9.48501 16.985 10.715 17.11 12 17.11C13.28 17.11 14.51 16.985 15.465 16.755C16.43 16.52 16.76 16.275 16.86 16.175C16.775 16.09 16.505 15.885 15.785 15.68C15.05 15.47 14.065 15.32 13.015 15.265Z" fill="#00ACCD"/>
<path d="M12 9.89999C12.63 9.89999 13.145 9.38499 13.145 8.75499C13.145 8.12499 12.63 7.60999 12 7.60999C11.37 7.60999 10.855 8.12499 10.855 8.75499C10.855 9.38499 11.37 9.89999 12 9.89999Z" fill="#00ACCD"/>
<path d="M12 14.675C12.395 14.325 13.065 13.695 13.725 12.93C15.025 11.425 15.715 10.075 15.715 9.02501V8.75501C15.715 6.70501 14.05 5.04001 12 5.04001C9.95 5.04001 8.285 6.70501 8.285 8.75501V9.02501C8.285 10.08 8.975 11.435 10.285 12.945C10.945 13.705 11.61 14.325 12 14.675ZM12 6.49001C13.25 6.49001 14.265 7.50501 14.265 8.75501C14.265 10.005 13.25 11.015 12 11.015C10.75 11.015 9.735 10 9.735 8.75001C9.735 7.50001 10.75 6.49001 12 6.49001Z" fill="#00ACCD"/>
<path d="M12 0C5.375 0 0 5.375 0 12C0 18.625 5.375 24 12 24C18.625 24 24 18.625 24 12C24 5.375 18.625 0 12 0ZM16 17.77C14.925 18.065 13.505 18.225 12 18.225C10.495 18.225 9.075 18.065 8 17.77C6.67 17.405 5.995 16.87 5.995 16.175C5.995 14.875 8.38 14.4 9.945 14.23C9.78 14.055 9.615 13.87 9.445 13.675C7.935 11.935 7.17 10.37 7.17 9.025V8.755C7.17 6.09 9.34 3.92 12.005 3.92C14.67 3.92 16.84 6.09 16.84 8.755V9.025C16.84 10.37 16.075 11.935 14.565 13.675C14.395 13.87 14.23 14.055 14.065 14.23C15.635 14.4 18.015 14.875 18.015 16.175C18.005 16.865 17.33 17.405 16 17.77Z" fill="#00ACCD"/>
</svg>
