<svg width="24" height="24" viewBox="0 0 24 24" fill="none" xmlns="http://www.w3.org/2000/svg">
<path d="M15.22 14.045C15.155 13.98 15.05 13.98 14.98 14.045L13.89 15.1L13.575 14.96C13.525 14.94 12.305 14.395 10.92 13.01C9.53499 11.625 8.97999 10.395 8.95499 10.345L8.81499 10.025L9.86999 8.955C9.93499 8.89 9.93499 8.78 9.86999 8.715L8.06499 6.895C7.99999 6.83 7.88999 6.83 7.82499 6.895L6.95499 7.755C6.61499 8.095 6.52499 8.62 6.73499 9.05C7.30999 10.235 8.37499 12.025 10.17 13.82C11.965 15.615 13.755 16.68 14.94 17.255C15.37 17.465 15.89 17.375 16.235 17.03L17.1 16.16C17.165 16.095 17.165 15.985 17.1 15.92L15.22 14.045Z" fill="#00ACCD"/>
<path d="M12 0C5.375 0 0 5.375 0 12C0 18.625 5.375 24 12 24C18.625 24 24 18.625 24 12C24 5.375 18.625 0 12 0ZM18.21 16.5L16.955 17.76C16.54 18.175 15.985 18.395 15.425 18.395C15.11 18.395 14.79 18.325 14.49 18.18C13.235 17.57 11.34 16.445 9.445 14.55C7.55 12.655 6.425 10.76 5.815 9.505C5.415 8.685 5.585 7.695 6.235 7.045L7.495 5.795C7.745 5.545 8.15 5.55 8.395 5.8L10.975 8.395C11.22 8.645 11.22 9.045 10.975 9.295L10.04 10.24C10.275 10.655 10.78 11.445 11.635 12.3C12.49 13.155 13.275 13.655 13.685 13.885L14.655 12.945C14.905 12.705 15.305 12.705 15.55 12.955L18.205 15.61C18.46 15.85 18.46 16.25 18.21 16.5Z" fill="#00ACCD"/>
</svg>
